<svg width="92" height="15" viewBox="0 0 92 15" fill="none" xmlns="http://www.w3.org/2000/svg">
<path d="M0.404 14V1.31H5.966C7.346 1.31 8.408 1.604 9.152 2.192C9.896 2.768 10.268 3.572 10.268 4.604C10.268 5.372 10.04 6.02 9.584 6.548C9.128 7.076 8.498 7.43 7.694 7.61V7.34C8.618 7.472 9.332 7.808 9.836 8.348C10.352 8.876 10.61 9.578 10.61 10.454C10.61 11.582 10.22 12.458 9.44 13.082C8.66 13.694 7.574 14 6.182 14H0.404ZM2.636 12.236H5.912C6.692 12.236 7.298 12.092 7.73 11.804C8.162 11.504 8.378 11.018 8.378 10.346C8.378 9.662 8.162 9.176 7.73 8.888C7.298 8.588 6.692 8.438 5.912 8.438H2.636V12.236ZM2.636 6.692H5.57C6.398 6.692 7.01 6.542 7.406 6.242C7.814 5.93 8.018 5.474 8.018 4.874C8.018 4.274 7.814 3.824 7.406 3.524C7.01 3.212 6.398 3.056 5.57 3.056H2.636V6.692ZM17.3317 14.18C16.3957 14.18 15.5857 13.988 14.9017 13.604C14.2177 13.22 13.6837 12.674 13.2997 11.966C12.9277 11.258 12.7417 10.418 12.7417 9.446C12.7417 8.474 12.9277 7.64 13.2997 6.944C13.6837 6.236 14.2177 5.69 14.9017 5.306C15.5857 4.922 16.3957 4.73 17.3317 4.73C18.2677 4.73 19.0777 4.922 19.7617 5.306C20.4577 5.69 20.9917 6.236 21.3637 6.944C21.7477 7.64 21.9397 8.474 21.9397 9.446C21.9397 10.418 21.7477 11.258 21.3637 11.966C20.9917 12.674 20.4577 13.22 19.7617 13.604C19.0777 13.988 18.2677 14.18 17.3317 14.18ZM17.3317 12.452C18.0397 12.452 18.6037 12.206 19.0237 11.714C19.4437 11.21 19.6537 10.454 19.6537 9.446C19.6537 8.438 19.4437 7.688 19.0237 7.196C18.6037 6.704 18.0397 6.458 17.3317 6.458C16.6237 6.458 16.0597 6.704 15.6397 7.196C15.2197 7.688 15.0097 8.438 15.0097 9.446C15.0097 10.454 15.2197 11.21 15.6397 11.714C16.0597 12.206 16.6237 12.452 17.3317 12.452ZM28.5601 14.18C27.6241 14.18 26.8141 13.988 26.1301 13.604C25.4461 13.22 24.9121 12.674 24.5281 11.966C24.1561 11.258 23.9701 10.418 23.9701 9.446C23.9701 8.474 24.1561 7.64 24.5281 6.944C24.9121 6.236 25.4461 5.69 26.1301 5.306C26.8141 4.922 27.6241 4.73 28.5601 4.73C29.4961 4.73 30.3061 4.922 30.9901 5.306C31.6861 5.69 32.2201 6.236 32.5921 6.944C32.9761 7.64 33.1681 8.474 33.1681 9.446C33.1681 10.418 32.9761 11.258 32.5921 11.966C32.2201 12.674 31.6861 13.22 30.9901 13.604C30.3061 13.988 29.4961 14.18 28.5601 14.18ZM28.5601 12.452C29.2681 12.452 29.8321 12.206 30.2521 11.714C30.6721 11.21 30.8821 10.454 30.8821 9.446C30.8821 8.438 30.6721 7.688 30.2521 7.196C29.8321 6.704 29.2681 6.458 28.5601 6.458C27.8521 6.458 27.2881 6.704 26.8681 7.196C26.4481 7.688 26.2381 8.438 26.2381 9.446C26.2381 10.454 26.4481 11.21 26.8681 11.714C27.2881 12.206 27.8521 12.452 28.5601 12.452ZM35.6844 14V0.751999H37.9344V8.78H37.9704L41.6604 4.91H44.3784L39.7884 9.716L39.8064 8.816L44.7024 14H41.9124L37.9704 9.932H37.9344V14H35.6844ZM49.2914 14.18C48.5114 14.18 47.7914 14.09 47.1314 13.91C46.4834 13.718 45.9374 13.454 45.4934 13.118L46.1234 11.606C46.5794 11.918 47.0834 12.158 47.6354 12.326C48.1874 12.494 48.7454 12.578 49.3094 12.578C49.9094 12.578 50.3534 12.476 50.6414 12.272C50.9414 12.068 51.0914 11.792 51.0914 11.444C51.0914 11.168 50.9954 10.952 50.8034 10.796C50.6234 10.628 50.3294 10.502 49.9214 10.418L48.1214 10.076C47.3534 9.908 46.7654 9.62 46.3574 9.212C45.9614 8.804 45.7634 8.27 45.7634 7.61C45.7634 7.046 45.9134 6.548 46.2134 6.116C46.5254 5.684 46.9634 5.348 47.5274 5.108C48.1034 4.856 48.7754 4.73 49.5434 4.73C50.2154 4.73 50.8454 4.82 51.4334 5C52.0334 5.18 52.5374 5.45 52.9454 5.81L52.2974 7.268C51.9254 6.968 51.4994 6.734 51.0194 6.566C50.5394 6.398 50.0714 6.314 49.6154 6.314C48.9914 6.314 48.5354 6.428 48.2474 6.656C47.9594 6.872 47.8154 7.154 47.8154 7.502C47.8154 7.766 47.8994 7.988 48.0674 8.168C48.2474 8.336 48.5234 8.462 48.8954 8.546L50.6954 8.888C51.4994 9.044 52.1054 9.32 52.5134 9.716C52.9334 10.1 53.1434 10.628 53.1434 11.3C53.1434 11.9 52.9814 12.416 52.6574 12.848C52.3334 13.28 51.8834 13.61 51.3074 13.838C50.7314 14.066 50.0594 14.18 49.2914 14.18Z" fill="#6200EE"/>
<path d="M61.3405 14V1.31H63.6625V12.038H69.6385V14H61.3405ZM71.8087 14V4.91H74.0587V14H71.8087ZM71.6827 3.2V1.004H74.1847V3.2H71.6827ZM80.3181 14.18C79.5381 14.18 78.8181 14.09 78.1581 13.91C77.5101 13.718 76.9641 13.454 76.5201 13.118L77.1501 11.606C77.6061 11.918 78.1101 12.158 78.6621 12.326C79.2141 12.494 79.7721 12.578 80.3361 12.578C80.9361 12.578 81.3801 12.476 81.6681 12.272C81.9681 12.068 82.1181 11.792 82.1181 11.444C82.1181 11.168 82.0221 10.952 81.8301 10.796C81.6501 10.628 81.3561 10.502 80.9481 10.418L79.1481 10.076C78.3801 9.908 77.7921 9.62 77.3841 9.212C76.9881 8.804 76.7901 8.27 76.7901 7.61C76.7901 7.046 76.9401 6.548 77.2401 6.116C77.5521 5.684 77.9901 5.348 78.5541 5.108C79.1301 4.856 79.8021 4.73 80.5701 4.73C81.2421 4.73 81.8721 4.82 82.4601 5C83.0601 5.18 83.5641 5.45 83.9721 5.81L83.3241 7.268C82.9521 6.968 82.5261 6.734 82.0461 6.566C81.5661 6.398 81.0981 6.314 80.6421 6.314C80.0181 6.314 79.5621 6.428 79.2741 6.656C78.9861 6.872 78.8421 7.154 78.8421 7.502C78.8421 7.766 78.9261 7.988 79.0941 8.168C79.2741 8.336 79.5501 8.462 79.9221 8.546L81.7221 8.888C82.5261 9.044 83.1321 9.32 83.5401 9.716C83.9601 10.1 84.1701 10.628 84.1701 11.3C84.1701 11.9 84.0081 12.416 83.6841 12.848C83.3601 13.28 82.9101 13.61 82.3341 13.838C81.7581 14.066 81.0861 14.18 80.3181 14.18ZM90.4718 14.18C89.3918 14.18 88.5758 13.898 88.0238 13.334C87.4718 12.77 87.1958 11.924 87.1958 10.796V6.602H85.4498V4.91H87.1958V2.588L89.4458 2.012V4.91H91.8758V6.602H89.4458V10.652C89.4458 11.276 89.5658 11.714 89.8058 11.966C90.0458 12.218 90.3758 12.344 90.7958 12.344C91.0238 12.344 91.2158 12.326 91.3718 12.29C91.5398 12.254 91.7018 12.206 91.8578 12.146V13.928C91.6538 14.012 91.4258 14.072 91.1738 14.108C90.9338 14.156 90.6998 14.18 90.4718 14.18Z" fill="white"/>
</svg>
